<svg width="62" height="37" viewBox="0 0 62 37" fill="none" xmlns="http://www.w3.org/2000/svg">
<mask id="mask0_3_19" style="mask-type:luminance" maskUnits="userSpaceOnUse" x="0" y="0" width="62" height="37">
<path d="M0 0H62V36.16H0V0Z" fill="white"/>
</mask>
<g mask="url(#mask0_3_19)">
<path d="M61.9811 36.16H51.5402V18.0549H50.3118V21.2879H42.9417V36.16H39.6619V29.5558L35.7489 25.4564L32.0702 29.5495V36.16H28.7777V9.00861H24.9597V0.860056H23.7377V9.13417H21.2366V26.2034H17.6846V30.8553H13.9109V21.3821L10.3145 24.9165V36.16H0.00644684V35.2937H9.43435V24.5587L14.791 19.2979V29.9952H16.8044V25.3434H20.3565V8.27411H22.8576V0H25.8398V8.14228H29.6578V35.2937H31.1901V29.2231L35.7299 24.1757L40.542 29.2168V35.2937H42.0679V20.4279H49.438V17.1948H52.4203V35.2937H61.9811V36.16Z" fill="#322F30"/>
</g>
</svg>
